<?xml version="1.0" encoding="UTF-8" standalone="no"?>
<!-- Created with Inkscape (http://www.inkscape.org/) -->

<svg
   width="16.130211mm"
   height="6.8981495mm"
   viewBox="0 0 16.130211 6.8981495"
   version="1.1"
   id="svg1"
   sodipodi:docname="cheeseburger.svg"
   inkscape:version="1.3.2 (091e20ef0f, 2023-11-25, custom)"
   xmlns:inkscape="http://www.inkscape.org/namespaces/inkscape"
   xmlns:sodipodi="http://sodipodi.sourceforge.net/DTD/sodipodi-0.dtd"
   xmlns="http://www.w3.org/2000/svg"
   xmlns:svg="http://www.w3.org/2000/svg">
  <sodipodi:namedview
     id="namedview1"
     pagecolor="#505050"
     bordercolor="#eeeeee"
     borderopacity="1"
     inkscape:showpageshadow="0"
     inkscape:pageopacity="0"
     inkscape:pagecheckerboard="0"
     inkscape:deskcolor="#505050"
     inkscape:document-units="mm"
     inkscape:zoom="11.313709"
     inkscape:cx="26.472309"
     inkscape:cy="14.4073"
     inkscape:window-width="1880"
     inkscape:window-height="1010"
     inkscape:window-x="0"
     inkscape:window-y="0"
     inkscape:window-maximized="0"
     inkscape:current-layer="layer1" />
  <defs
     id="defs1" />
  <g
     inkscape:label="Layer 1"
     inkscape:groupmode="layer"
     id="layer1"
     transform="translate(-84.77339,-68.536481)">
    <path
       style="fill:#a05a2c;stroke:none;stroke-width:0.265;stroke-dasharray:none"
       d="M 84.819996,72.394399 H 100.857 c 0,0 0.13565,-3.857918 -8.019004,-3.857918 -8.154652,0 -8.018,3.857918 -8.018,3.857918 z"
       id="path1"
       sodipodi:nodetypes="cczc" />
    <rect
       style="fill:#ffcc00;stroke:none;stroke-width:0.253455;stroke-dasharray:none"
       id="rect1-29"
       width="14.839"
       height="0.55365646"
       x="85.418999"
       y="72.394394" />
    <rect
       style="fill:#28170b;stroke:none;stroke-width:0.25421;stroke-dasharray:none"
       id="rect1-2"
       width="14.838872"
       height="1.1082726"
       x="85.41906"
       y="72.948051"
       rx="0.46011379" />
    <path
       style="color:#000000;fill:#008000;stroke:none;stroke-width:0.265;stroke-linecap:round;stroke-dasharray:none;stroke-opacity:1"
       d="m 85.570044,73.535468 c -0.215243,-6e-6 -0.378467,0.09133 -0.501702,0.169155 -0.123233,0.07783 -0.211444,0.157622 -0.211444,0.157622 -0.105031,0.09664 -0.111916,0.260096 -0.01538,0.365224 0.0961,0.105593 0.259577,0.113338 0.365222,0.0173 0,0 0.0538,-0.04966 0.136478,-0.101878 0.08267,-0.05221 0.188276,-0.09034 0.226823,-0.09034 0.03858,2e-6 0.14435,0.03817 0.226823,0.09034 0.08247,0.05217 0.136478,0.101878 0.136478,0.101878 0,0 0.0882,0.07957 0.211444,0.157622 0.123242,0.07806 0.286221,0.171079 0.501702,0.171079 0.21548,0 0.380504,-0.09299 0.503623,-0.171079 0.123117,-0.07809 0.209522,-0.157622 0.209522,-0.157622 0,0 0.05572,-0.04966 0.1384,-0.101878 0.08267,-0.05221 0.188274,-0.09034 0.226822,-0.09034 0.03831,2e-6 0.14098,0.03668 0.222979,0.08842 0.09566,0.05995 0.197336,0.165041 0.34994,0.261472 0.123301,0.07792 0.288266,0.171079 0.503624,0.171079 0.215233,0 0.378592,-0.09321 0.501701,-0.171079 0.123109,-0.07787 0.209522,-0.157622 0.209522,-0.157622 0,0 0.05572,-0.04966 0.1384,-0.101878 0.08267,-0.05221 0.188275,-0.09034 0.226823,-0.09034 0.03858,2e-6 0.142429,0.03817 0.2249,0.09034 0.08247,0.05217 0.138401,0.101878 0.138401,0.101878 0,0 0.08628,0.08149 0.209522,0.159545 0.123242,0.07806 0.288143,0.169156 0.503624,0.169156 0.21548,0 0.380505,-0.09107 0.503623,-0.169156 0.123117,-0.07809 0.209522,-0.159545 0.209522,-0.159545 0,0 0.0538,-0.04966 0.136478,-0.101878 0.08267,-0.05221 0.188274,-0.09034 0.226822,-0.09034 0.03831,2e-6 0.142901,0.0386 0.224901,0.09034 0.041,0.02587 0.07669,0.053 0.101877,0.07305 l 0.248017,0.188427 c 0.123299,0.07792 0.286344,0.169156 0.501701,0.169156 0.215234,0 0.380514,-0.09129 0.503624,-0.169156 0.123109,-0.07787 0.209522,-0.157622 0.209522,-0.157622 0,0 0.05572,-0.04966 0.1384,-0.101878 0.08267,-0.05221 0.188277,-0.09034 0.226822,-0.09034 0.03859,10e-7 0.142429,0.03817 0.224901,0.09034 0.08247,0.05217 0.138401,0.101878 0.138401,0.101878 0,0 0.08628,0.07957 0.209522,0.157622 0.123241,0.07806 0.288143,0.171078 0.503623,0.171078 0.215481,0 0.378583,-0.09299 0.501702,-0.171078 0.122398,-0.07763 0.208512,-0.156694 0.209521,-0.157622 0,0 0.0037,-0.0019 0.0038,-0.002 0.0027,-0.0024 0.05393,-0.04903 0.134555,-0.09996 0.08267,-0.05221 0.188274,-0.09034 0.226822,-0.09034 0.03831,1e-6 0.140978,0.03667 0.222979,0.08842 0.041,0.02588 0.04531,0.02753 0.103799,0.07305 0.05849,0.04551 0.14384,0.111937 0.248018,0.188431 0.104177,0.07649 0.286343,0.171078 0.501699,0.171078 0.215234,0 0.380515,-0.09321 0.503625,-0.171078 0.123108,-0.07787 0.209522,-0.157622 0.209522,-0.157622 0,0 0.05572,-0.04966 0.138401,-0.101879 0.08267,-0.05221 0.186352,-0.09034 0.224899,-0.09034 0.03859,10e-7 0.144351,0.03817 0.226823,0.09034 0.08247,0.05217 0.136478,0.101879 0.136478,0.101879 0,0 0.0882,0.07957 0.211445,0.157622 0.123241,0.07806 0.286221,0.171078 0.5017,0.171078 0.215483,0 0.3805,-0.09299 0.503615,-0.171078 0.12312,-0.07809 0.20953,-0.157622 0.20953,-0.157622 0,0 0.0556,-0.04966 0.1384,-0.101879 0.0827,-0.05221 0.18827,-0.09034 0.22682,-0.09034 0.14198,-6.62e-4 0.25689,-0.11568 0.2574,-0.257667 4.9e-4,-0.142772 -0.11481,-0.258933 -0.25758,-0.259501 -0.21524,-6e-6 -0.38039,0.09133 -0.50362,0.169156 l -0.347961,0.26147 c -0.08247,0.05232 -0.188547,0.09034 -0.226824,0.09034 -0.03828,0 -0.142228,-0.03799 -0.2249,-0.09034 -0.08267,-0.05236 -0.138401,-0.10188 -0.138401,-0.10188 0,0 -0.08641,-0.08167 -0.209523,-0.159544 -0.123069,-0.07792 -0.288345,-0.169196 -0.503584,-0.169202 -0.215243,-6e-6 -0.378466,0.09133 -0.501701,0.169156 -0.123234,0.07783 -0.211444,0.157622 -0.211444,0.157622 -3e-6,6.57e-4 -3e-6,0.0013 0,0.002 -6.59e-4,6.53e-4 -0.0013,0.0013 -0.002,0.002 -0.0017,0.0016 -0.05337,0.04861 -0.134556,0.09996 -0.08248,0.05217 -0.188297,0.09034 -0.226822,0.09034 -0.0384,0 -0.144047,-0.03804 -0.226824,-0.09034 -0.08075,-0.05103 -0.131931,-0.09951 -0.134555,-0.101879 l -0.0038,-0.002 c -0.02421,-0.02257 -0.02854,-0.02606 -0.06343,-0.05383 -0.03664,-0.02916 -0.0866,-0.06697 -0.14801,-0.105722 -0.122815,-0.0775 -0.286006,-0.167228 -0.499779,-0.167233 -0.215243,-8e-6 -0.380389,0.09133 -0.503624,0.169155 -0.123232,0.07783 -0.209521,0.157622 -0.209521,0.157622 0,0 -0.05592,0.05148 -0.138401,0.103802 -0.08247,0.05232 -0.186619,0.09034 -0.2249,0.09034 -0.03827,0 -0.144149,-0.03799 -0.226823,-0.09034 -0.08267,-0.05236 -0.138401,-0.103802 -0.138401,-0.103802 0,0 -0.08641,-0.07974 -0.209521,-0.157622 -0.123072,-0.07792 -0.286427,-0.169194 -0.501665,-0.169199 -0.215243,-7e-6 -0.38039,0.09133 -0.503623,0.169156 -0.123234,0.07783 -0.209522,0.157622 -0.209522,0.157622 0,0 -0.05591,0.0497 -0.1384,0.101878 -0.08248,0.05217 -0.188297,0.09034 -0.226824,0.09034 -0.0384,0 -0.142124,-0.03804 -0.224901,-0.09034 -0.08148,-0.05149 -0.134779,-0.09841 -0.136476,-0.09996 l -0.002,-0.002 c -0.02541,-0.0237 -0.02796,-0.02559 -0.06343,-0.05382 -0.03664,-0.02916 -0.08853,-0.06697 -0.149934,-0.105722 -0.122815,-0.07751 -0.286007,-0.169149 -0.499778,-0.169156 -0.215244,-5e-6 -0.378468,0.09325 -0.501701,0.171078 -0.123234,0.07783 -0.211445,0.157622 -0.211445,0.157622 0,0 -0.05592,0.04956 -0.1384,0.101878 -0.08247,0.05232 -0.18662,0.09035 -0.224901,0.09035 -0.03828,0 -0.144149,-0.03799 -0.226823,-0.09035 -0.08267,-0.05236 -0.136477,-0.101878 -0.136477,-0.101878 0,0 -0.08834,-0.07975 -0.211445,-0.157622 -0.123108,-0.07788 -0.286463,-0.171071 -0.501701,-0.171078 -0.215243,-5e-6 -0.38039,0.09325 -0.503623,0.171078 -0.123235,0.07783 -0.209522,0.157622 -0.209522,0.157622 0,0 -0.05591,0.0497 -0.138401,0.101878 -0.08248,0.05217 -0.186376,0.09035 -0.224901,0.09035 -0.0384,0 -0.144046,-0.03804 -0.226822,-0.09035 -0.08148,-0.05149 -0.13478,-0.09842 -0.136478,-0.09996 l -0.002,-0.002 c -0.02562,-0.02391 -0.02796,-0.02559 -0.06343,-0.05383 -0.03664,-0.02916 -0.08661,-0.06697 -0.148012,-0.105723 -0.122815,-0.07751 -0.286006,-0.169149 -0.499778,-0.169156 -0.215244,-6e-6 -0.38039,0.09133 -0.503623,0.169156 -0.123235,0.07783 -0.209523,0.157623 -0.209523,0.157623 -6.59e-4,6.52e-4 -0.0013,0.0013 -0.002,0.002 0,0 -0.05401,0.04956 -0.136478,0.101878 -0.08247,0.05232 -0.18854,0.09034 -0.226822,0.09034 -0.03827,0 -0.142227,-0.03799 -0.224901,-0.09034 -0.08267,-0.05236 -0.138401,-0.1038 -0.138401,-0.1038 0,0 -0.08641,-0.07975 -0.209521,-0.157622 -0.123109,-0.07788 -0.288385,-0.169149 -0.503623,-0.169156 z"
       id="path2-6-9-3"
       sodipodi:nodetypes="cscccssscssscsssssscssscssscsssccsscssscsssccssszzsscssscssscscccccssccsscccsssccsssscsssccsscsssccsssscssscssscsssccssssccssscscc" />
    <rect
       style="fill:#a05a2c;stroke:none;stroke-width:0.265;stroke-dasharray:none"
       id="rect1"
       width="16.125219"
       height="1.3783103"
       x="84.775887"
       y="74.05632"
       rx="0.5" />
  </g>
</svg>
